<mxfile host="65bd71144e" scale="1" border="0">
    <diagram id="-TkkRAmG4_V0f1dHDEug" name="Page-1">
        <mxGraphModel dx="1369" dy="1294" grid="1" gridSize="10" guides="1" tooltips="1" connect="1" arrows="1" fold="1" page="1" pageScale="1" pageWidth="850" pageHeight="1100" background="none" math="0" shadow="0">
            <root>
                <mxCell id="0"/>
                <mxCell id="1" parent="0"/>
                <mxCell id="5" style="edgeStyle=none;html=1;exitX=0.5;exitY=1;exitDx=0;exitDy=0;entryX=0.5;entryY=0;entryDx=0;entryDy=0;strokeWidth=2;fillColor=#000000;labelBackgroundColor=#000000;labelBorderColor=none;fontStyle=0;strokeColor=#F0F0F0;fontColor=#F0F0F0;" parent="1" source="3" target="17" edge="1">
                    <mxGeometry relative="1" as="geometry">
                        <mxPoint x="270" y="280" as="targetPoint"/>
                    </mxGeometry>
                </mxCell>
                <mxCell id="28" style="edgeStyle=none;html=1;exitX=0;exitY=0.5;exitDx=0;exitDy=0;entryX=0;entryY=0.5;entryDx=0;entryDy=0;fontFamily=Helvetica;fontSize=12;fontColor=#F0F0F0;strokeWidth=2;fillColor=#000000;labelBackgroundColor=#000000;labelBorderColor=none;fontStyle=0;strokeColor=#F0F0F0;" parent="1" source="3" target="25" edge="1">
                    <mxGeometry relative="1" as="geometry">
                        <Array as="points">
                            <mxPoint x="90" y="210"/>
                            <mxPoint x="90" y="360"/>
                            <mxPoint x="90" y="510"/>
                        </Array>
                    </mxGeometry>
                </mxCell>
                <mxCell id="3" value="인사담당자 로그인" style="rounded=0;whiteSpace=wrap;html=1;strokeWidth=2;fillColor=#000000;labelBackgroundColor=#000000;labelBorderColor=none;fontStyle=0;strokeColor=#F0F0F0;fontColor=#F0F0F0;" parent="1" vertex="1">
                    <mxGeometry x="210" y="180" width="120" height="60" as="geometry"/>
                </mxCell>
                <mxCell id="6" value="yes" style="edgeStyle=none;html=1;exitX=0.5;exitY=1;exitDx=0;exitDy=0;entryX=0.5;entryY=0;entryDx=0;entryDy=0;strokeWidth=2;fillColor=#000000;labelBackgroundColor=#000000;labelBorderColor=none;fontStyle=0;strokeColor=#F0F0F0;fontColor=#F0F0F0;" parent="1" source="17" target="25" edge="1">
                    <mxGeometry relative="1" as="geometry">
                        <mxPoint x="270" y="350" as="sourcePoint"/>
                        <mxPoint x="270" y="410" as="targetPoint"/>
                    </mxGeometry>
                </mxCell>
                <mxCell id="27" value="no" style="edgeStyle=none;html=1;fontFamily=Helvetica;fontSize=12;fontColor=#F0F0F0;strokeWidth=2;fillColor=#000000;labelBackgroundColor=#000000;labelBorderColor=none;fontStyle=0;strokeColor=#F0F0F0;" parent="1" source="17" target="26" edge="1">
                    <mxGeometry relative="1" as="geometry"/>
                </mxCell>
                <mxCell id="17" value="질문지 유무" style="rhombus;whiteSpace=wrap;html=1;rounded=0;shadow=0;fontFamily=Helvetica;fontSize=12;strokeWidth=2;fillColor=#000000;labelBackgroundColor=#000000;labelBorderColor=none;fontStyle=0;strokeColor=#F0F0F0;fontColor=#F0F0F0;" parent="1" vertex="1">
                    <mxGeometry x="210" y="320" width="120" height="80" as="geometry"/>
                </mxCell>
                <mxCell id="39" value="yes" style="edgeStyle=none;html=1;exitX=0.5;exitY=1;exitDx=0;exitDy=0;entryX=0.5;entryY=0;entryDx=0;entryDy=0;fontFamily=Helvetica;fontSize=12;fontColor=#F0F0F0;strokeWidth=2;fillColor=#000000;labelBackgroundColor=#000000;labelBorderColor=none;fontStyle=0;strokeColor=#F0F0F0;" parent="1" source="25" target="38" edge="1">
                    <mxGeometry relative="1" as="geometry"/>
                </mxCell>
                <mxCell id="25" value="프로젝트 입력" style="shape=parallelogram;perimeter=parallelogramPerimeter;whiteSpace=wrap;html=1;fixedSize=1;rounded=0;shadow=0;fontFamily=Helvetica;fontSize=12;strokeWidth=2;fillColor=#000000;labelBackgroundColor=#000000;labelBorderColor=none;fontStyle=0;strokeColor=#F0F0F0;fontColor=#F0F0F0;" parent="1" vertex="1">
                    <mxGeometry x="210" y="480" width="120" height="60" as="geometry"/>
                </mxCell>
                <mxCell id="30" value="" style="edgeStyle=none;html=1;fontFamily=Helvetica;fontSize=12;fontColor=#F0F0F0;strokeWidth=2;fillColor=#000000;labelBackgroundColor=#000000;labelBorderColor=none;fontStyle=0;strokeColor=#F0F0F0;" parent="1" source="26" target="29" edge="1">
                    <mxGeometry relative="1" as="geometry"/>
                </mxCell>
                <mxCell id="26" value="질문지 입력" style="shape=parallelogram;perimeter=parallelogramPerimeter;whiteSpace=wrap;html=1;fixedSize=1;rounded=0;shadow=0;strokeWidth=2;fillColor=#000000;labelBackgroundColor=#000000;labelBorderColor=none;fontStyle=0;strokeColor=#F0F0F0;fontColor=#F0F0F0;" parent="1" vertex="1">
                    <mxGeometry x="410" y="330" width="120" height="60" as="geometry"/>
                </mxCell>
                <mxCell id="34" value="yes" style="edgeStyle=none;html=1;fontFamily=Helvetica;fontSize=12;fontColor=#F0F0F0;strokeWidth=2;fillColor=#000000;labelBackgroundColor=#000000;labelBorderColor=none;fontStyle=0;strokeColor=#F0F0F0;" parent="1" source="29" target="33" edge="1">
                    <mxGeometry relative="1" as="geometry"/>
                </mxCell>
                <mxCell id="35" value="no" style="edgeStyle=none;html=1;exitX=0.5;exitY=0;exitDx=0;exitDy=0;entryX=0.5;entryY=0;entryDx=0;entryDy=0;fontFamily=Helvetica;fontSize=12;fontColor=#F0F0F0;strokeWidth=2;fillColor=#000000;labelBackgroundColor=#000000;labelBorderColor=none;fontStyle=0;strokeColor=#F0F0F0;" parent="1" source="29" target="26" edge="1">
                    <mxGeometry relative="1" as="geometry">
                        <Array as="points">
                            <mxPoint x="690" y="240"/>
                            <mxPoint x="570" y="240"/>
                            <mxPoint x="470" y="240"/>
                        </Array>
                    </mxGeometry>
                </mxCell>
                <mxCell id="29" value="유효성 검사" style="rhombus;whiteSpace=wrap;html=1;rounded=0;shadow=0;strokeWidth=2;fillColor=#000000;labelBackgroundColor=#000000;labelBorderColor=none;fontStyle=0;strokeColor=#F0F0F0;fontColor=#F0F0F0;" parent="1" vertex="1">
                    <mxGeometry x="630" y="320" width="120" height="80" as="geometry"/>
                </mxCell>
                <mxCell id="33" value="질문지 생성&amp;nbsp;" style="whiteSpace=wrap;html=1;rounded=0;shadow=0;strokeWidth=2;fillColor=#000000;labelBackgroundColor=#000000;labelBorderColor=none;fontStyle=0;strokeColor=#F0F0F0;fontColor=#F0F0F0;" parent="1" vertex="1">
                    <mxGeometry x="830" y="330" width="120" height="60" as="geometry"/>
                </mxCell>
                <mxCell id="40" value="no" style="edgeStyle=none;html=1;exitX=1;exitY=0.5;exitDx=0;exitDy=0;entryX=1;entryY=0.5;entryDx=0;entryDy=0;fontFamily=Helvetica;fontSize=12;fontColor=#F0F0F0;strokeWidth=2;fillColor=#000000;labelBackgroundColor=#000000;labelBorderColor=none;fontStyle=0;strokeColor=#F0F0F0;" parent="1" source="38" target="25" edge="1">
                    <mxGeometry relative="1" as="geometry">
                        <Array as="points">
                            <mxPoint x="390" y="660"/>
                            <mxPoint x="390" y="590"/>
                            <mxPoint x="390" y="510"/>
                        </Array>
                    </mxGeometry>
                </mxCell>
                <mxCell id="42" style="edgeStyle=none;html=1;exitX=0.5;exitY=1;exitDx=0;exitDy=0;fontFamily=Helvetica;fontSize=12;fontColor=#F0F0F0;strokeWidth=2;fillColor=#000000;labelBackgroundColor=#000000;labelBorderColor=none;fontStyle=0;strokeColor=#F0F0F0;" parent="1" source="38" target="41" edge="1">
                    <mxGeometry relative="1" as="geometry"/>
                </mxCell>
                <mxCell id="38" value="유효성 검사" style="rhombus;whiteSpace=wrap;html=1;rounded=0;shadow=0;fontFamily=Helvetica;fontSize=12;strokeWidth=2;fillColor=#000000;labelBackgroundColor=#000000;labelBorderColor=none;fontStyle=0;strokeColor=#F0F0F0;fontColor=#F0F0F0;" parent="1" vertex="1">
                    <mxGeometry x="210" y="620" width="120" height="80" as="geometry"/>
                </mxCell>
                <mxCell id="44" style="edgeStyle=none;html=1;exitX=0.5;exitY=1;exitDx=0;exitDy=0;fontFamily=Helvetica;fontSize=12;fontColor=#F0F0F0;entryX=0.5;entryY=0;entryDx=0;entryDy=0;strokeWidth=2;fillColor=#000000;labelBackgroundColor=#000000;labelBorderColor=none;fontStyle=0;strokeColor=#F0F0F0;" parent="1" source="41" target="45" edge="1">
                    <mxGeometry relative="1" as="geometry">
                        <mxPoint x="300" y="890" as="targetPoint"/>
                    </mxGeometry>
                </mxCell>
                <mxCell id="41" value="프로젝트 생성" style="whiteSpace=wrap;html=1;rounded=0;shadow=0;strokeWidth=2;fillColor=#000000;labelBackgroundColor=#000000;labelBorderColor=none;fontStyle=0;strokeColor=#F0F0F0;fontColor=#F0F0F0;" parent="1" vertex="1">
                    <mxGeometry x="210" y="760" width="120" height="60" as="geometry"/>
                </mxCell>
                <mxCell id="57" style="edgeStyle=none;html=1;exitX=0.5;exitY=1;exitDx=0;exitDy=0;entryX=0.5;entryY=0;entryDx=0;entryDy=0;fontFamily=Helvetica;fontSize=12;fontColor=#F0F0F0;strokeWidth=2;fillColor=#000000;labelBackgroundColor=#000000;labelBorderColor=none;fontStyle=0;strokeColor=#F0F0F0;" parent="1" source="45" target="56" edge="1">
                    <mxGeometry relative="1" as="geometry"/>
                </mxCell>
                <mxCell id="45" value="후보자 동의요청" style="whiteSpace=wrap;html=1;rounded=0;shadow=0;strokeWidth=2;fillColor=#000000;labelBackgroundColor=#000000;labelBorderColor=none;fontStyle=0;strokeColor=#F0F0F0;fontColor=#F0F0F0;" parent="1" vertex="1">
                    <mxGeometry x="210" y="890" width="120" height="60" as="geometry"/>
                </mxCell>
                <mxCell id="74" style="edgeStyle=none;html=1;exitX=0.5;exitY=1;exitDx=0;exitDy=0;entryX=0.5;entryY=0;entryDx=0;entryDy=0;fontFamily=Helvetica;fontSize=12;fontColor=#F0F0F0;strokeWidth=2;fillColor=#000000;labelBackgroundColor=#000000;labelBorderColor=none;fontStyle=0;strokeColor=#F0F0F0;" parent="1" source="46" target="73" edge="1">
                    <mxGeometry relative="1" as="geometry"/>
                </mxCell>
                <mxCell id="46" value="후보자 로그인" style="rounded=0;whiteSpace=wrap;html=1;strokeWidth=2;fillColor=#000000;labelBackgroundColor=#000000;labelBorderColor=none;fontStyle=0;strokeColor=#F0F0F0;fontColor=#F0F0F0;" parent="1" vertex="1">
                    <mxGeometry x="1065" y="200" width="120" height="60" as="geometry"/>
                </mxCell>
                <mxCell id="59" value="no" style="edgeStyle=none;html=1;fontFamily=Helvetica;fontSize=12;fontColor=#F0F0F0;strokeWidth=2;fillColor=#000000;labelBackgroundColor=#000000;labelBorderColor=none;fontStyle=0;strokeColor=#F0F0F0;" parent="1" source="56" target="58" edge="1">
                    <mxGeometry relative="1" as="geometry"/>
                </mxCell>
                <mxCell id="61" value="yes" style="edgeStyle=none;html=1;fontFamily=Helvetica;fontSize=12;fontColor=#F0F0F0;strokeWidth=2;fillColor=#000000;labelBackgroundColor=#000000;labelBorderColor=none;fontStyle=0;strokeColor=#F0F0F0;" parent="1" source="56" target="60" edge="1">
                    <mxGeometry relative="1" as="geometry"/>
                </mxCell>
                <mxCell id="56" value="합의 프로세스&lt;br&gt;유무" style="rhombus;whiteSpace=wrap;html=1;rounded=0;shadow=0;fontFamily=Helvetica;fontSize=12;strokeWidth=2;fillColor=#000000;labelBackgroundColor=#000000;labelBorderColor=none;fontStyle=0;strokeColor=#F0F0F0;fontColor=#F0F0F0;" parent="1" vertex="1">
                    <mxGeometry x="210" y="1020" width="120" height="80" as="geometry"/>
                </mxCell>
                <mxCell id="69" value="" style="edgeStyle=none;html=1;fontFamily=Helvetica;fontSize=12;fontColor=#F0F0F0;strokeWidth=2;fillColor=#000000;labelBackgroundColor=#000000;labelBorderColor=none;fontStyle=0;strokeColor=#F0F0F0;" parent="1" source="58" target="68" edge="1">
                    <mxGeometry relative="1" as="geometry"/>
                </mxCell>
                <mxCell id="58" value="인사담당자&lt;br&gt;검수" style="whiteSpace=wrap;html=1;rounded=0;shadow=0;strokeWidth=2;fillColor=#000000;labelBackgroundColor=#000000;labelBorderColor=none;fontStyle=0;strokeColor=#F0F0F0;fontColor=#F0F0F0;" parent="1" vertex="1">
                    <mxGeometry x="210" y="1180" width="120" height="60" as="geometry"/>
                </mxCell>
                <mxCell id="63" style="edgeStyle=none;html=1;exitX=0.5;exitY=1;exitDx=0;exitDy=0;fontFamily=Helvetica;fontSize=12;fontColor=#F0F0F0;strokeWidth=2;fillColor=#000000;labelBackgroundColor=#000000;labelBorderColor=none;fontStyle=0;strokeColor=#F0F0F0;" parent="1" source="60" target="62" edge="1">
                    <mxGeometry relative="1" as="geometry"/>
                </mxCell>
                <mxCell id="60" value="후보자 합의요청&lt;br&gt;대기 및 메시지 대화" style="whiteSpace=wrap;html=1;rounded=0;shadow=0;strokeWidth=2;fillColor=#000000;labelBackgroundColor=#000000;labelBorderColor=none;fontStyle=0;strokeColor=#F0F0F0;fontColor=#F0F0F0;" parent="1" vertex="1">
                    <mxGeometry x="430" y="1030" width="120" height="60" as="geometry"/>
                </mxCell>
                <mxCell id="66" value="yes" style="edgeStyle=none;html=1;exitX=0;exitY=0.5;exitDx=0;exitDy=0;entryX=1;entryY=0.5;entryDx=0;entryDy=0;fontFamily=Helvetica;fontSize=12;fontColor=#F0F0F0;strokeWidth=2;fillColor=#000000;labelBackgroundColor=#000000;labelBorderColor=none;fontStyle=0;strokeColor=#F0F0F0;" parent="1" source="62" target="58" edge="1">
                    <mxGeometry relative="1" as="geometry"/>
                </mxCell>
                <mxCell id="67" value="no" style="edgeStyle=none;html=1;exitX=1;exitY=0.5;exitDx=0;exitDy=0;entryX=1;entryY=0.5;entryDx=0;entryDy=0;fontFamily=Helvetica;fontSize=12;fontColor=#F0F0F0;strokeWidth=2;fillColor=#000000;labelBackgroundColor=#000000;labelBorderColor=none;fontStyle=0;strokeColor=#F0F0F0;" parent="1" source="62" target="60" edge="1">
                    <mxGeometry relative="1" as="geometry">
                        <Array as="points">
                            <mxPoint x="650" y="1210"/>
                            <mxPoint x="650" y="1140"/>
                            <mxPoint x="650" y="1060"/>
                        </Array>
                    </mxGeometry>
                </mxCell>
                <mxCell id="62" value="합의요청&lt;br&gt;완료" style="rhombus;whiteSpace=wrap;html=1;rounded=0;shadow=0;fontFamily=Helvetica;fontSize=12;strokeWidth=2;fillColor=#000000;labelBackgroundColor=#000000;labelBorderColor=none;fontStyle=0;strokeColor=#F0F0F0;fontColor=#F0F0F0;" parent="1" vertex="1">
                    <mxGeometry x="430" y="1170" width="120" height="80" as="geometry"/>
                </mxCell>
                <mxCell id="71" value="" style="edgeStyle=none;html=1;fontFamily=Helvetica;fontSize=12;fontColor=#F0F0F0;strokeWidth=2;fillColor=#000000;labelBackgroundColor=#000000;labelBorderColor=none;fontStyle=0;strokeColor=#F0F0F0;" parent="1" source="68" target="70" edge="1">
                    <mxGeometry relative="1" as="geometry"/>
                </mxCell>
                <mxCell id="68" value="평가 시작&lt;br&gt;(후보자 응답 시작&lt;br&gt;레퍼리 동의요청 및&lt;br&gt;레퍼리 응답 시작)" style="whiteSpace=wrap;html=1;rounded=0;shadow=0;strokeWidth=2;fillColor=#000000;labelBackgroundColor=#000000;labelBorderColor=none;fontStyle=0;strokeColor=#F0F0F0;fontColor=#F0F0F0;" parent="1" vertex="1">
                    <mxGeometry x="210" y="1320" width="120" height="60" as="geometry"/>
                </mxCell>
                <mxCell id="70" value="프로젝트 종료" style="whiteSpace=wrap;html=1;rounded=0;shadow=0;strokeWidth=2;fillColor=#000000;labelBackgroundColor=#000000;labelBorderColor=none;fontStyle=0;strokeColor=#F0F0F0;fontColor=#F0F0F0;" parent="1" vertex="1">
                    <mxGeometry x="210" y="1460" width="120" height="60" as="geometry"/>
                </mxCell>
                <mxCell id="79" style="edgeStyle=none;html=1;exitX=0.5;exitY=1;exitDx=0;exitDy=0;entryX=0.5;entryY=0;entryDx=0;entryDy=0;fontFamily=Helvetica;fontSize=12;fontColor=#F0F0F0;strokeWidth=2;fillColor=#000000;labelBackgroundColor=#000000;labelBorderColor=none;fontStyle=0;strokeColor=#F0F0F0;" parent="1" source="73" target="77" edge="1">
                    <mxGeometry relative="1" as="geometry"/>
                </mxCell>
                <mxCell id="73" value="프로젝트&lt;br&gt;동의하기" style="whiteSpace=wrap;html=1;rounded=0;shadow=0;strokeWidth=2;fillColor=#000000;labelBackgroundColor=#000000;labelBorderColor=none;fontStyle=0;strokeColor=#F0F0F0;fontColor=#F0F0F0;" parent="1" vertex="1">
                    <mxGeometry x="1065" y="340" width="120" height="60" as="geometry"/>
                </mxCell>
                <mxCell id="81" value="yes" style="edgeStyle=none;html=1;fontFamily=Helvetica;fontSize=12;fontColor=#F0F0F0;entryX=0;entryY=0.5;entryDx=0;entryDy=0;exitX=1;exitY=0.5;exitDx=0;exitDy=0;strokeWidth=2;fillColor=#000000;labelBackgroundColor=#000000;labelBorderColor=none;fontStyle=0;strokeColor=#F0F0F0;" parent="1" source="77" target="88" edge="1">
                    <mxGeometry relative="1" as="geometry">
                        <mxPoint x="1140" y="610" as="targetPoint"/>
                    </mxGeometry>
                </mxCell>
                <mxCell id="89" value="no" style="edgeStyle=none;html=1;exitX=0.5;exitY=1;exitDx=0;exitDy=0;entryX=0.5;entryY=0;entryDx=0;entryDy=0;fontFamily=Helvetica;fontSize=12;fontColor=#F0F0F0;strokeWidth=2;fillColor=#000000;labelBackgroundColor=#000000;labelBorderColor=none;fontStyle=0;strokeColor=#F0F0F0;" parent="1" source="77" target="80" edge="1">
                    <mxGeometry relative="1" as="geometry"/>
                </mxCell>
                <mxCell id="77" value="합의 프로세스&lt;br&gt;유무" style="rhombus;whiteSpace=wrap;html=1;rounded=0;shadow=0;strokeWidth=2;fillColor=#000000;labelBackgroundColor=#000000;labelBorderColor=none;fontStyle=0;strokeColor=#F0F0F0;fontColor=#F0F0F0;" parent="1" vertex="1">
                    <mxGeometry x="1065" y="470" width="120" height="80" as="geometry"/>
                </mxCell>
                <mxCell id="83" style="edgeStyle=none;html=1;entryX=0.5;entryY=0;entryDx=0;entryDy=0;fontFamily=Helvetica;fontSize=12;fontColor=#F0F0F0;strokeWidth=2;fillColor=#000000;labelBackgroundColor=#000000;labelBorderColor=none;fontStyle=0;strokeColor=#F0F0F0;" parent="1" source="80" target="82" edge="1">
                    <mxGeometry relative="1" as="geometry"/>
                </mxCell>
                <mxCell id="80" value="인사담당자 검수&lt;br&gt;대기" style="whiteSpace=wrap;html=1;rounded=0;shadow=0;strokeWidth=2;fillColor=#000000;labelBackgroundColor=#000000;labelBorderColor=none;fontStyle=0;strokeColor=#F0F0F0;fontColor=#F0F0F0;" parent="1" vertex="1">
                    <mxGeometry x="1065" y="620" width="120" height="60" as="geometry"/>
                </mxCell>
                <mxCell id="85" value="yes" style="edgeStyle=none;html=1;fontFamily=Helvetica;fontSize=12;fontColor=#F0F0F0;strokeWidth=2;fillColor=#000000;labelBackgroundColor=#000000;labelBorderColor=none;fontStyle=0;strokeColor=#F0F0F0;" parent="1" source="82" target="84" edge="1">
                    <mxGeometry relative="1" as="geometry"/>
                </mxCell>
                <mxCell id="86" value="no" style="edgeStyle=none;html=1;exitX=0;exitY=0.5;exitDx=0;exitDy=0;entryX=0;entryY=0.5;entryDx=0;entryDy=0;fontFamily=Helvetica;fontSize=12;fontColor=#F0F0F0;strokeWidth=2;fillColor=#000000;labelBackgroundColor=#000000;labelBorderColor=none;fontStyle=0;strokeColor=#F0F0F0;" parent="1" source="82" target="80" edge="1">
                    <mxGeometry relative="1" as="geometry">
                        <Array as="points">
                            <mxPoint x="990" y="800"/>
                            <mxPoint x="990" y="730"/>
                            <mxPoint x="990" y="650"/>
                        </Array>
                    </mxGeometry>
                </mxCell>
                <mxCell id="82" value="검수 완료" style="rhombus;whiteSpace=wrap;html=1;rounded=0;shadow=0;strokeWidth=2;fillColor=#000000;labelBackgroundColor=#000000;labelBorderColor=none;fontStyle=0;strokeColor=#F0F0F0;fontColor=#F0F0F0;" parent="1" vertex="1">
                    <mxGeometry x="1065" y="760" width="120" height="80" as="geometry"/>
                </mxCell>
                <mxCell id="92" value="" style="edgeStyle=none;html=1;fontFamily=Helvetica;fontSize=12;fontColor=#F0F0F0;strokeWidth=2;fillColor=#000000;labelBackgroundColor=#000000;labelBorderColor=none;fontStyle=0;strokeColor=#F0F0F0;" parent="1" source="84" target="91" edge="1">
                    <mxGeometry relative="1" as="geometry"/>
                </mxCell>
                <mxCell id="84" value="질문지 응답" style="whiteSpace=wrap;html=1;rounded=0;shadow=0;strokeWidth=2;fillColor=#000000;labelBackgroundColor=#000000;labelBorderColor=none;fontStyle=0;strokeColor=#F0F0F0;fontColor=#F0F0F0;" parent="1" vertex="1">
                    <mxGeometry x="1065" y="930" width="120" height="60" as="geometry"/>
                </mxCell>
                <mxCell id="90" style="edgeStyle=none;html=1;exitX=0.5;exitY=1;exitDx=0;exitDy=0;entryX=1;entryY=0.5;entryDx=0;entryDy=0;fontFamily=Helvetica;fontSize=12;fontColor=#F0F0F0;strokeWidth=2;fillColor=#000000;labelBackgroundColor=#000000;labelBorderColor=none;fontStyle=0;strokeColor=#F0F0F0;" parent="1" source="88" target="80" edge="1">
                    <mxGeometry relative="1" as="geometry">
                        <Array as="points">
                            <mxPoint x="1340" y="650"/>
                        </Array>
                    </mxGeometry>
                </mxCell>
                <mxCell id="88" value="합의요청 및&lt;br&gt;메세지 프로세스" style="rounded=0;whiteSpace=wrap;html=1;shadow=0;fontFamily=Helvetica;fontSize=12;strokeWidth=2;fillColor=#000000;labelBackgroundColor=#000000;labelBorderColor=none;fontStyle=0;strokeColor=#F0F0F0;fontColor=#F0F0F0;" parent="1" vertex="1">
                    <mxGeometry x="1280" y="480" width="120" height="60" as="geometry"/>
                </mxCell>
                <mxCell id="91" value="완료" style="whiteSpace=wrap;html=1;rounded=0;shadow=0;strokeWidth=2;fillColor=#000000;labelBackgroundColor=#000000;labelBorderColor=none;fontStyle=0;strokeColor=#F0F0F0;fontColor=#F0F0F0;" parent="1" vertex="1">
                    <mxGeometry x="1065" y="1070" width="120" height="60" as="geometry"/>
                </mxCell>
                <mxCell id="94" style="edgeStyle=none;html=1;entryX=0.5;entryY=0;entryDx=0;entryDy=0;fontFamily=Helvetica;fontSize=12;fontColor=#F0F0F0;strokeWidth=2;fillColor=#000000;labelBackgroundColor=#000000;labelBorderColor=none;fontStyle=0;strokeColor=#F0F0F0;" parent="1" source="95" target="97" edge="1">
                    <mxGeometry relative="1" as="geometry"/>
                </mxCell>
                <mxCell id="95" value="레퍼리 로그인" style="rounded=0;whiteSpace=wrap;html=1;strokeWidth=2;fillColor=#000000;labelBackgroundColor=#000000;labelBorderColor=none;fontStyle=0;strokeColor=#F0F0F0;fontColor=#F0F0F0;" parent="1" vertex="1">
                    <mxGeometry x="1490" y="200" width="120" height="60" as="geometry"/>
                </mxCell>
                <mxCell id="112" style="edgeStyle=none;html=1;exitX=0.5;exitY=1;exitDx=0;exitDy=0;entryX=0.5;entryY=0;entryDx=0;entryDy=0;fontFamily=Helvetica;fontSize=12;fontColor=#F0F0F0;strokeWidth=2;fillColor=#000000;labelBackgroundColor=#000000;labelBorderColor=none;fontStyle=0;strokeColor=#F0F0F0;" parent="1" source="97" target="107" edge="1">
                    <mxGeometry relative="1" as="geometry"/>
                </mxCell>
                <mxCell id="97" value="프로젝트&lt;br&gt;동의하기" style="whiteSpace=wrap;html=1;rounded=0;shadow=0;strokeWidth=2;fillColor=#000000;labelBackgroundColor=#000000;labelBorderColor=none;fontStyle=0;strokeColor=#F0F0F0;fontColor=#F0F0F0;" parent="1" vertex="1">
                    <mxGeometry x="1490" y="340" width="120" height="60" as="geometry"/>
                </mxCell>
                <mxCell id="106" value="" style="edgeStyle=none;html=1;fontFamily=Helvetica;fontSize=12;fontColor=#F0F0F0;strokeWidth=2;fillColor=#000000;labelBackgroundColor=#000000;labelBorderColor=none;fontStyle=0;strokeColor=#F0F0F0;" parent="1" source="107" target="110" edge="1">
                    <mxGeometry relative="1" as="geometry"/>
                </mxCell>
                <mxCell id="107" value="질문지 응답" style="whiteSpace=wrap;html=1;rounded=0;shadow=0;strokeWidth=2;fillColor=#000000;labelBackgroundColor=#000000;labelBorderColor=none;fontStyle=0;strokeColor=#F0F0F0;fontColor=#F0F0F0;" parent="1" vertex="1">
                    <mxGeometry x="1490" y="480" width="120" height="60" as="geometry"/>
                </mxCell>
                <mxCell id="110" value="완료" style="whiteSpace=wrap;html=1;rounded=0;shadow=0;strokeWidth=2;fillColor=#000000;labelBackgroundColor=#000000;labelBorderColor=none;fontStyle=0;strokeColor=#F0F0F0;fontColor=#F0F0F0;" parent="1" vertex="1">
                    <mxGeometry x="1490" y="620" width="120" height="60" as="geometry"/>
                </mxCell>
            </root>
        </mxGraphModel>
    </diagram>
</mxfile>